<?xml version="1.0" encoding="utf-8"?>
<!-- Generator: Adobe Illustrator 16.0.0, SVG Export Plug-In . SVG Version: 6.00 Build 0)  -->
<!DOCTYPE svg PUBLIC "-//W3C//DTD SVG 1.1//EN" "http://www.w3.org/Graphics/SVG/1.1/DTD/svg11.dtd">
<svg version="1.1" id="Layer_1" xmlns="http://www.w3.org/2000/svg" xmlns:xlink="http://www.w3.org/1999/xlink" x="0px" y="0px"
	 width="841.89px" height="595.28px" viewBox="0 0 841.89 595.28" enable-background="new 0 0 841.89 595.28" xml:space="preserve">
<g>
	<path fill="#FFFFFF" d="M253.535,364.628c8.877,0,13.44,5.31,13.44,14.602v1.825h-8.628v-2.406c0-4.147-1.659-5.725-4.563-5.725
		s-4.563,1.577-4.563,5.725c0,4.231,1.825,7.384,7.798,12.61c7.633,6.72,10.039,11.532,10.039,18.169
		c0,9.292-4.646,14.602-13.606,14.602c-8.959,0-13.605-5.31-13.605-14.602v-3.567h8.628v4.148c0,4.147,1.825,5.641,4.729,5.641
		c2.903,0,4.729-1.493,4.729-5.641c0-4.231-1.825-7.384-7.798-12.61c-7.632-6.721-10.038-11.532-10.038-18.169
		C240.095,369.938,244.658,364.628,253.535,364.628z"/>
	<path fill="#FFFFFF" d="M301.82,423.365h-9.209l-1.576-10.536h-11.2l-1.577,10.536h-8.379l9.292-58.073h13.357L301.82,423.365z
		 M280.997,404.947h8.794l-4.314-29.368h-0.166L280.997,404.947z"/>
	<path fill="#FFFFFF" d="M306.053,365.292h9.126v49.777h15.016v8.296h-24.142V365.292z"/>
	<path fill="#FFFFFF" d="M333.432,379.229c0-9.292,4.895-14.602,13.854-14.602c8.96,0,13.855,5.31,13.855,14.602v30.198
		c0,9.292-4.895,14.602-13.855,14.602c-8.959,0-13.854-5.31-13.854-14.602V379.229z M342.558,410.009
		c0,4.147,1.825,5.724,4.729,5.724c2.904,0,4.729-1.576,4.729-5.724v-31.36c0-4.147-1.825-5.725-4.729-5.725
		c-2.903,0-4.729,1.577-4.729,5.725V410.009z"/>
	<path fill="#FFFFFF" d="M375.33,381.304h-0.166v42.062h-8.213v-58.073h11.449l9.209,34.761h0.166v-34.761h8.13v58.073h-9.375
		L375.33,381.304z"/>
</g>
<g>
	<path fill="#FFFFFF" d="M255.083,358.713h-12.579v-80.044h12.579v34.304h14.294v-34.304h12.807v80.044h-12.807v-34.305h-14.294
		V358.713z"/>
	<path fill="#FFFFFF" d="M332.039,358.713h-12.693l-2.172-14.522h-15.437l-2.173,14.522h-11.549l12.807-80.044h18.41
		L332.039,358.713z M303.337,333.327h12.121l-5.946-40.479h-0.229L303.337,333.327z"/>
	<path fill="#FFFFFF" d="M337.871,278.668h12.578v80.044h-12.578V278.668z"/>
	<path fill="#FFFFFF" d="M385.897,358.713c-0.686-2.059-1.144-3.316-1.144-9.834v-12.578c0-7.433-2.516-10.178-8.233-10.178h-4.345
		v32.59h-12.578v-80.044h18.982c13.036,0,18.639,6.061,18.639,18.41v6.29c0,8.232-2.63,13.493-8.233,16.123v0.229
		c6.289,2.63,8.347,8.576,8.347,16.924v12.35c0,3.888,0.115,6.747,1.373,9.72H385.897z M372.175,290.104v24.585h4.917
		c4.688,0,7.547-2.059,7.547-8.462v-7.89c0-5.717-1.944-8.233-6.404-8.233H372.175z"/>
</g>
<g>
	<g>
		<g>
			<rect x="313.166" y="365.292" fill="#FFFFFF" width="10.221" height="2.441"/>
		</g>
	</g>
	<rect x="313.166" y="369.122" fill="#FFFFFF" width="10.22" height="2.441"/>
	<rect x="313.166" y="372.952" fill="#FFFFFF" width="10.221" height="2.441"/>
	<rect x="313.166" y="376.782" fill="#FFFFFF" width="10.22" height="2.441"/>
	<rect x="313.165" y="380.612" fill="#FFFFFF" width="10.221" height="2.441"/>
	<rect x="313.166" y="384.442" fill="#FFFFFF" width="10.22" height="2.441"/>
	<rect x="313.166" y="388.272" fill="#FFFFFF" width="10.22" height="2.441"/>
	<rect x="313.166" y="392.103" fill="#FFFFFF" width="10.22" height="2.441"/>
	<rect x="313.166" y="395.933" fill="#FFFFFF" width="10.22" height="2.441"/>
	<rect x="313.165" y="399.763" fill="#FFFFFF" width="10.221" height="2.441"/>
	<rect x="313.166" y="403.593" fill="#FFFFFF" width="10.22" height="2.441"/>
	<rect x="313.166" y="407.423" fill="#FFFFFF" width="10.221" height="2.441"/>
	<rect x="313.166" y="411.253" fill="#FFFFFF" width="10.22" height="2.441"/>
	<g>
		<rect x="313.166" y="415.083" fill="#FFFFFF" width="10.221" height="2.441"/>
	</g>
</g>
</svg>
