<?xml version="1.0" encoding="utf-8"?>
<!-- Generator: Adobe Illustrator 16.0.0, SVG Export Plug-In . SVG Version: 6.00 Build 0)  -->
<!DOCTYPE svg PUBLIC "-//W3C//DTD SVG 1.1//EN" "http://www.w3.org/Graphics/SVG/1.1/DTD/svg11.dtd">
<svg version="1.1" id="Layer_1" xmlns="http://www.w3.org/2000/svg" xmlns:xlink="http://www.w3.org/1999/xlink" x="0px" y="0px"
	 width="623.622px" height="570.64px" viewBox="0 0 623.622 570.64" enable-background="new 0 0 623.622 570.64"
	 xml:space="preserve">
<g>
	<defs>
		<rect id="SVGID_1_" width="623.623" height="570.64"/>
	</defs>
	<clipPath id="SVGID_2_">
		<use xlink:href="#SVGID_1_"  overflow="visible"/>
	</clipPath>
	<path clip-path="url(#SVGID_2_)" fill="#FFFFFF" d="M53.737,337.449c34.848,0,52.761,20.844,52.761,57.322v7.165H72.626v-9.448
		c0-16.279-6.512-22.473-17.912-22.473c-11.4,0-17.914,6.193-17.914,22.473c0,16.613,7.166,28.988,30.614,49.505
		c29.965,26.38,39.407,45.273,39.407,71.327c0,36.477-18.237,57.319-53.412,57.319C18.238,570.64,0,549.797,0,513.32v-14.006h33.87
		v16.284c0,16.284,7.164,22.143,18.563,22.143c11.398,0,18.562-5.858,18.562-22.143c0-16.609-7.164-28.986-30.612-49.504
		c-29.961-26.381-39.406-45.271-39.406-71.323C0.978,358.293,18.889,337.449,53.737,337.449"/>
</g>
<path fill="#FFFFFF" d="M161.543,495.729h34.522L179.131,380.44h-0.65L161.543,495.729z M243.29,568.032h-36.151l-6.188-41.361
	h-43.966l-6.189,41.361h-32.893l36.475-227.977h52.435L243.29,568.032z"/>
<polygon fill="#FFFFFF" points="256.735,340.056 292.561,340.056 292.561,535.466 351.51,535.466 351.51,568.032 256.735,568.032 
	"/>
<g>
	<defs>
		<rect id="SVGID_3_" width="623.623" height="570.64"/>
	</defs>
	<clipPath id="SVGID_4_">
		<use xlink:href="#SVGID_3_"  overflow="visible"/>
	</clipPath>
	<path clip-path="url(#SVGID_4_)" fill="#FFFFFF" d="M403.213,515.601c0,16.282,7.165,22.47,18.563,22.47
		c11.399,0,18.565-6.188,18.565-22.47V392.488c0-16.279-7.166-22.473-18.565-22.473c-11.398,0-18.563,6.193-18.563,22.473V515.601z
		 M367.387,394.771c0-36.479,19.216-57.322,54.389-57.322c35.173,0,54.39,20.844,54.39,57.322V513.32
		c0,36.477-19.217,57.319-54.39,57.319c-35.173,0-54.389-20.843-54.389-57.319V394.771z"/>
</g>
<polygon fill="#FFFFFF" points="531.865,402.914 531.214,402.914 531.214,568.032 498.971,568.032 498.971,340.056 543.914,340.056 
	580.065,476.515 580.718,476.515 580.718,340.056 612.635,340.056 612.635,568.032 575.831,568.032 "/>
<polygon fill="#FFFFFF" points="115.926,0.001 115.926,134.668 59.814,134.668 59.814,0.001 10.434,0.001 10.434,314.229 
	59.814,314.229 59.814,179.561 115.926,179.561 115.926,314.229 166.202,314.229 166.202,0.001 "/>
<path fill="#FFFFFF" d="M272.587,55.663h0.896l23.344,158.91h-47.584L272.587,55.663z M239.369,0.001l-50.277,314.228h45.339
	l8.528-57.009h60.603l8.528,57.009h49.828L311.641,0.001H239.369z"/>
<rect x="384.813" y="0.001" fill="#FFFFFF" width="49.379" height="314.228"/>
<g>
	<defs>
		<rect id="SVGID_5_" width="623.623" height="570.64"/>
	</defs>
	<clipPath id="SVGID_6_">
		<use xlink:href="#SVGID_5_"  overflow="visible"/>
	</clipPath>
	<path clip-path="url(#SVGID_6_)" fill="#FFFFFF" d="M519.479,44.891v96.513h19.303c18.405,0,29.629-8.083,29.629-33.218V77.211
		c0-22.444-7.634-32.32-25.14-32.32H519.479z M573.348,314.229c-2.693-8.082-4.489-13.02-4.489-38.606v-49.377
		c0-29.178-9.876-39.954-32.322-39.954h-17.058v127.938h-49.378V0.001h74.518c51.173,0,73.169,23.791,73.169,72.272v24.69
		c0,32.317-10.325,52.969-32.32,63.293v0.897c24.69,10.323,32.769,33.668,32.769,66.437v48.48c0,15.263,0.452,26.488,5.389,38.158
		H573.348z"/>
</g>
<rect x="284.656" y="340.056" fill="#FFFFFF" width="43.294" height="9.585"/>
<rect x="284.656" y="355.091" fill="#FFFFFF" width="43.293" height="9.585"/>
<rect x="284.656" y="370.127" fill="#FFFFFF" width="43.294" height="9.585"/>
<rect x="284.656" y="385.163" fill="#FFFFFF" width="43.293" height="9.585"/>
<rect x="284.654" y="400.2" fill="#FFFFFF" width="43.296" height="9.583"/>
<rect x="284.656" y="415.234" fill="#FFFFFF" width="43.293" height="9.585"/>
<rect x="284.658" y="430.269" fill="#FFFFFF" width="43.292" height="9.585"/>
<rect x="284.658" y="445.306" fill="#FFFFFF" width="43.292" height="9.585"/>
<rect x="284.656" y="460.34" fill="#FFFFFF" width="43.293" height="9.585"/>
<rect x="284.654" y="475.376" fill="#FFFFFF" width="43.296" height="9.585"/>
<rect x="284.656" y="490.412" fill="#FFFFFF" width="43.293" height="9.585"/>
<rect x="284.656" y="505.451" fill="#FFFFFF" width="43.294" height="9.583"/>
<rect x="284.656" y="520.483" fill="#FFFFFF" width="43.293" height="9.585"/>
<rect x="287.827" y="535.52" fill="#FFFFFF" width="40.124" height="9.585"/>
</svg>
