<?xml version="1.0" encoding="utf-8"?>
<!-- Generator: Adobe Illustrator 16.0.0, SVG Export Plug-In . SVG Version: 6.00 Build 0)  -->
<!DOCTYPE svg PUBLIC "-//W3C//DTD SVG 1.1//EN" "http://www.w3.org/Graphics/SVG/1.1/DTD/svg11.dtd">
<svg version="1.1" id="Layer_2" xmlns="http://www.w3.org/2000/svg" xmlns:xlink="http://www.w3.org/1999/xlink" x="0px" y="0px"
	 width="158.74px" height="452.463px" viewBox="0 0 158.74 452.463" enable-background="new 0 0 158.74 452.463"
	 xml:space="preserve">
<path fill="#FFFFFF" d="M129.089,47.909c-51.995-4.395-45.256,64.646-44.842,67.534c0.412,2.889,9.216,9.767,17.332,22.284
	c8.116,12.517,1.237,31.088-3.715,42.367s-20.909,36.04-20.909,36.04s-12.38-22.834-20.083-39.479
	c-7.703-16.645-5.64-22.285-4.401-31.776c1.239-9.491,16.506-25.86,18.845-28.749c2.338-2.889,1.926-26.548,0-38.241
	c-1.848-11.216-16.609-30.9-35.172-30.907c0.404-2.473-1.795-7.061-4.201-12.37c-3.084-6.808-2.234-23.827-2.659-28.614
	c-0.425-4.787-2.449-7.514-10.637-5.106c-3.617,1.064-3.297,1.809-6.294,4.255c-2.997,2.446,4.911,11.701,7.251,18.189
	c2.34,6.489,2.66,18.19,2.447,23.632c-0.053,1.343,0.557,2.208,1.543,2.73C9.797,55.794,1.182,71.174,0.061,87.654
	c-1.375,20.22,20.909,44.843,30.675,54.197c9.766,9.354,11.28,21.459,9.491,30.263c-1.788,8.804,2.339,8.803,8.391,16.231
	c6.053,7.429,11.692,27.237,11.968,39.342c0.276,12.104,2.338,98.497,2.613,108.125c0.274,9.629,8.391,116.65,12.655,116.65
	c4.264,0,11.417-92.852,13.344-118.711c1.925-25.859,4.951-89.551,6.053-108.809c1.101-19.259,6.052-28.199,11.967-36.04
	c5.916-7.841,8.805-8.115,8.115-16.507c-0.688-8.391,2.613-20.221,7.84-27.649c5.229-7.428,26.137-22.421,33.84-45.531
	C164.716,76.108,145.085,49.261,129.089,47.909z M43.95,121.796c-13.281,3.074-27.258-8.293-31.215-25.391
	c-3.957-17.098,3.604-33.45,16.886-36.524c13.282-3.074,27.258,8.293,31.216,25.391C64.793,102.369,57.234,118.722,43.95,121.796z
	 M145.12,96.406c-3.957,17.097-17.934,28.464-31.215,25.391c-13.284-3.074-20.844-19.427-16.887-36.524
	c3.958-17.098,17.934-28.465,31.217-25.391C141.517,62.956,149.077,79.308,145.12,96.406z"/>
<circle cx="77.42" cy="244.636" r="11.306"/>
</svg>
